<svg width="773" height="728" viewBox="0 0 773 728" fill="none" xmlns="http://www.w3.org/2000/svg">
<path d="M772.88 327.451L772.787 324.464L773 322.42L772.73 322.64L772.278 308.15L771.529 284.134L772.138 285.081L771.505 281.429L771.432 281.004L771.426 280.811L771.372 279.094L771.14 279.323L764.91 243.415L766.244 245.485L764.32 239.623L764.176 239.184L763.875 237.448L763.682 237.676L751.376 200.172L751.43 200.098L751.205 199.65L750.703 198.12L750.547 198.339L733.065 163.519L733.114 163.437L732.804 162.998L732.143 161.682L732.053 161.835L728.204 155.848L728.201 155.842L723.606 148.691L719.865 142.877L719.949 142.874L719.012 141.547L718.792 141.108L718.704 141.111L697.901 111.653L696.451 109.6L696.755 109.567L695.509 108.266L695.26 107.913L695.179 107.922L668.613 80.1721L668.956 80.1106L667.384 78.8881L667.119 78.6108L667.045 78.6242L636.663 54.9876L637.042 54.8911L635.266 53.8745L635.137 53.8001L634.865 53.5886L634.858 53.5903L631.132 50.6849L631.979 51.9928L601.131 34.3345L601.544 34.197L599.31 33.2922L596.219 31.5231L596.681 32.2275L562.603 18.4269L563.046 18.2421L560.765 17.6455L560.507 17.5781L560.244 17.4716L557.962 16.5474L558.252 16.9885L536.71 11.3564L521.663 7.42255L522.124 7.18681L519.324 6.81096L519.072 6.74508L517.151 6.24278L517.353 6.54636L478.926 1.38776L479.389 1.10069L476.403 1.04914L476.157 1.0161L474.509 0.795119L474.66 1.01895L453.179 0.647938L434.979 0.333327L435.42 0L432.347 0.287955L430.689 0.259312L430.807 0.432031L390.413 4.21433L390.8 3.85191L388.272 4.36238L387.788 4.4602L386.321 4.59745L386.417 4.73691L366.559 8.74768L345.82 12.936L346.121 12.5736L343.869 13.2727L343.338 13.4372L343.094 13.4868L342.043 13.6992L342.124 13.8142L301.75 26.3495L301.939 26.0252L300.145 26.7839L299.575 27.0245L298.432 27.3794L298.503 27.4784L286.348 32.62L258.785 44.2793L258.858 44.0361L257.666 44.6825L257.07 45.0048L256.734 45.1473L256.06 45.4329L256.123 45.5186L217.536 66.4401L217.525 66.2936L216.975 66.6638L216.363 67.0762L215.472 67.559L215.53 67.6369L178.648 92.4662L178.602 92.3987L177.935 92.9457L177.169 93.4616L177.222 93.5316L162.728 105.432L142.966 121.656L142.914 121.587L142.277 122.222L141.619 122.762L141.163 123.138L141.297 123.198L110.508 153.865L110.449 153.788L109.817 154.553L109.264 155.104L108.355 156.009L108.607 156.018L81.6369 188.672L81.5679 188.584L81.1226 189.248L80.9542 189.498L80.5011 190.047L79.3169 191.482L79.676 191.404L56.707 225.64L56.6246 225.537L56.1748 226.383L56.0462 226.624L54.4354 229.025L54.8633 228.851L36.0273 264.305L35.9264 264.181L35.4085 265.47L33.9915 268.138L34.4397 267.882L22.1102 298.577L19.8603 304.178L19.7329 304.024L19.308 305.553L18.1908 308.334L18.6216 308.023L9.12278 342.207L8.41843 344.741L8.25155 344.542L8.01206 346.08L7.96837 346.361L7.19889 349.13L7.5905 348.788L4.43498 369.068L1.88186 385.476L1.65464 385.207L1.58327 387.394L1.52625 387.762L1.17043 390.048L1.50835 389.699L0.785488 411.88L0.331047 425.825L0 425.437L0.256147 428.114L0.175827 430.582L0.45964 430.239L3.80595 465.195L3.28159 464.585L3.98989 467.625L4.0725 467.98L4.28661 470.216L4.51758 469.89L12.2304 502.992L11.276 501.879L13.0421 506.476L13.5032 508.454L13.6861 508.151L20.4579 525.772L25.3088 538.395L23.0441 535.788L26.8894 542.68L27.1018 543.061L27.7598 544.773L27.9017 544.495L37.693 562.042L45.8938 576.739L45.8603 576.819L46.15 577.198L46.9569 578.644L47.063 578.393L55.4657 589.389L69.6402 607.939L69.6117 608.023L69.98 608.383L70.8939 609.579L70.9313 609.469L72.3234 611.061L75.4006 614.586L77.6893 617.21L80.8034 620.783L83.1372 623.455L85.1525 625.765L85.0028 625.796L86.1883 626.955L86.4746 627.33L86.5541 627.313L96.7653 637.302L113.366 653.542L113.088 653.624L114.534 654.685L114.84 654.984L114.912 654.962L145.657 677.515L145.361 677.629L147.061 678.545L147.374 678.775L147.377 678.773L153.313 683.131L151.327 680.844L181.756 697.243L181.452 697.391L183.37 698.113L183.692 698.286L183.698 698.283L187.511 700.344L186.649 699.347L221.2 712.352L220.898 712.535L222.995 713.028L223.315 713.148L226.147 714.214L225.668 713.656L239.798 716.976L263.489 722.543L263.205 722.758L265.132 722.964L265.407 722.994L267.96 723.594L267.655 723.235L308.018 727.561L307.765 727.8L309.991 727.772L312.117 728L311.906 727.748L354.164 727.222L353.962 727.471L356.098 727.198L356.44 727.194L357.907 727.175L357.752 726.987L392.384 722.57L401.224 721.442L401.084 721.683L402.571 721.323L403.027 721.212L404.573 721.015L404.452 720.867L448.465 710.2L448.392 710.412L450.038 709.819L451.365 709.498L451.268 709.376L495.099 693.593L495.085 693.759L495.827 693.4L496.382 693.131L496.865 692.957L497.513 692.724L497.433 692.622L540.324 671.838L540.352 671.953L540.7 671.737L541.293 671.368L542.257 670.901L542.188 670.812L575.551 650.082L583.308 645.262L583.357 645.332L583.379 645.315L584.008 644.827L584.787 644.343L584.815 644.326L584.755 644.247L609.601 624.95L623.096 614.47L623.152 614.545L623.355 614.349L623.798 613.924L624.781 613.161L624.669 613.087L659.266 579.839L659.331 579.928L659.984 579.15L661.131 578.047L660.95 577.999L676.624 559.324L691.237 541.915L691.313 542.022L691.73 541.397L691.959 541.054L693.173 539.608L692.926 539.606L718.46 501.335L718.553 501.469L719.167 500.275L720.333 498.527L720.037 498.582L732.767 473.812L740.481 458.801L740.601 458.975L741.025 457.837L741.152 457.495L742.16 455.534L741.841 455.646L756.971 415.043L757.13 415.279L757.566 413.444L758.342 411.362L758.023 411.524L767.694 370.823L767.92 371.163L768.122 369.23L768.161 368.859L768.242 368.513L768.661 366.75L768.359 366.949L772.531 326.919L772.88 327.451ZM756.376 411.054L753.314 406.511L753.066 406.143L753.026 406.084L758.276 384.023L763.071 363.876L766.398 368.876L756.376 411.054ZM583.689 642.836L579.83 637.728L618.226 607.893L622.044 613.049L583.689 642.836ZM582.254 643.825L541.096 669.398L537.207 664.352L578.405 638.731L578.455 638.797L582.254 643.825ZM494.618 691.86L450.085 707.896L446.187 703.023L490.76 686.946L494.618 691.86ZM220.316 710.104L184.196 696.509L181.31 693.168L217.442 706.756L220.316 710.104ZM179.91 694.223L148.021 677.037L145.966 674.671L177.847 691.835L177.887 691.881L179.91 694.223ZM141.681 672.403L115.632 653.294L115.572 653.226L141.577 672.283L141.681 672.403ZM112.504 154.356L143.007 123.973L145.365 125.042L155.676 129.717L138.007 147.301L130.514 154.758L130.456 154.713L130.215 155.005L112.504 154.356ZM217.672 68.3945L255.989 47.6191L250.577 65.5777L250.175 65.7472L250.201 65.8212L223.213 80.4166L218.684 82.8654L217.672 68.3945ZM297.776 29.73L294.19 35.8805L285.465 50.8469L285.02 50.9846L285.035 51.0599L252.627 64.714L258.114 46.5079L297.776 29.73ZM340.96 16.0564L321.288 39.7555L320.836 39.8459L320.84 39.9203L313.015 42.3376L287.909 50.0921L300.411 28.6459L340.96 16.0564ZM664.706 79.0443L583.828 93.5828L583.587 93.3258L583.504 93.3993L570.9 83.411L559.741 74.5676L634.494 55.5398L664.706 79.0443ZM769.026 277.129L768.27 275.969L766.803 273.718L760.335 236.352L762.545 239.768L769.026 277.129ZM770.986 321.405L768.221 317.195L768.182 317.137L768.134 315.566L766.944 277.112L769.738 281.4L770.986 321.405ZM28.847 542.64L63.4971 474.636L63.943 475.419L77.9694 500.066L77.8629 500.143L78.1197 500.473L46.7468 574.72L28.847 542.64ZM476.518 2.88462L516.208 8.21218L464.548 34.6764L464.175 34.5766L464.14 34.652L438.429 31.0801L432.479 30.2532L476.518 2.88462ZM349.002 719.152L305.179 719.725L301.431 715.263L345.281 714.662L345.319 714.708L346.044 715.582L349.002 719.152ZM47.8438 576.545L79.3315 502.025L97.4535 525.237L97.3515 525.328L97.6532 525.616L83.3337 567.699L70.3159 605.953L47.8438 576.545ZM734.695 450.351L713.613 491.348L710.031 486.211L709.989 486.148L731.099 445.111L731.219 445.285L734.695 450.351ZM686.501 532.246L682.79 527.029L708.995 487.764L712.67 493.034L686.501 532.246ZM577.33 637.307L536.117 662.937L532.217 657.873L534.167 656.66L573.47 632.194L574.885 634.068L577.33 637.307ZM215.02 703.93L178.857 690.33L175.959 686.977L212.122 700.548L212.161 700.593L215.02 703.93ZM582.163 94.5914L581.583 95.1061L522.221 147.857L504.403 133.398L557.866 75.336L582.163 94.5914ZM136.305 666.225L110.257 647.135L110.16 647.024L136.201 666.105L136.298 666.217L136.305 666.225ZM158.515 129.5L186.298 106.712L220.045 152.609L221.916 155.155L221.912 155.158L221.965 155.229L201.031 172.316L200.978 172.256L200.944 172.29L158.515 129.5ZM358.755 34.1891L393.111 31.0695L390.533 44.1388L379.856 98.2587L379.57 98.2502L379.583 98.3564L354.13 100.476L358.755 34.1891ZM343.804 712.878L299.932 713.479L296.172 708.997L302.912 708.899L339.766 708.363L339.784 708.445L340.101 708.404L340.854 709.314L343.804 712.878ZM142.592 455.39L156.093 472.303L155.816 472.358L156.381 472.886L133.676 493.057L98.7592 524.076L80.3656 500.515L142.592 455.39ZM224.422 155.616L246.839 140.659L282.447 198.508L300.605 228.007L300.521 228.052L300.581 228.132L285.62 237.999L224.422 155.616ZM252.359 66.7694L285.395 52.8502L297.764 114.278L297.605 114.326L297.639 114.411L280.281 121.625L272.895 124.694L252.359 66.7694ZM299.922 115.501L325.254 107.84L354.708 205.76L354.273 205.839L354.363 205.962L337.779 210.802L299.922 115.501ZM326.922 107.436L352.553 102.501L365.67 164.968L373.496 202.238L372.895 202.281L373.005 202.433L356.404 205.451L326.922 107.436ZM747.059 397.25L743.721 392.299L743.856 391.937L743.763 391.895L753.78 349.913L757.135 354.954L747.059 397.25ZM707.928 486.235L681.713 525.514L677.993 520.277L704.236 480.951L707.928 486.235ZM390.91 707.003L346.007 712.801L342.147 708.139L362.809 705.456L386.831 702.337L386.855 702.417L387.118 702.352L390.91 707.003ZM354.252 102.276L379.804 100.148L384.478 138.001L392.244 200.9L375.217 202.116L354.252 102.276ZM513.662 169.426L488.868 235.449L477.351 225.866L503.579 135.003L521.215 149.315L513.662 169.426ZM759.84 263.032L757.624 259.63L757.611 259.164L757.513 259.146L753.263 234.516L751.124 222.118L753.374 225.592L759.84 263.032ZM706.331 480.914L705.272 479.399L705.435 479.154L705.352 479.099L726.385 438.233L729.99 443.492L708.87 484.548L706.331 480.914ZM649.778 563.787L645.985 558.559L664.267 536.76L676.884 521.718L680.635 526.998L649.778 563.787ZM648.577 565.093L613.605 598.73L609.761 593.53L622.451 581.319L644.767 559.845L647.125 563.093L648.577 565.093ZM202.204 173.638L223.019 156.647L264.737 212.807L284.164 238.959L284.158 238.962L284.213 239.035L270.253 250.327L202.204 173.638ZM432.65 104.631L428.463 204.33L412.361 201.724L408.344 101.024L432.65 104.631ZM454.406 214.941L461.396 218.031L463.611 221.151L463.599 221.144L464.253 222.063L451.609 216.466L448.732 212.435L454.406 214.941ZM434.986 688.705L395.236 588.91L431.069 575.573L479.71 672.518L434.986 688.705ZM130.953 660.066L130.621 659.823L130.848 659.944L130.901 660.005L130.953 660.066ZM144.425 454.89L231.004 444.433L240.106 455.591L219.907 459.609L158.019 471.919L144.425 454.89ZM214.342 401.931L216.927 405.172L220.011 417.092L217.425 413.854L214.342 401.931ZM214.213 346.69L218.281 331.444L222.125 336.353L218.071 351.579L217.404 350.733L214.213 346.69ZM233.483 297.52L237.458 302.654L229.646 317.494L227.38 314.59L225.657 312.382L227.095 309.65L233.483 297.52ZM725.838 435.282L630.143 382.554L642.958 348.628L741.659 392.912L725.838 435.282ZM215.856 401.033L213.314 397.846L211.741 384.382L214.919 388.384L216.499 401.839L215.936 401.133L215.856 401.031L215.856 401.033ZM320.286 222.118L322.926 225.675L307.134 233.982L303.163 228.676L318.976 220.354L320.286 222.118ZM349.261 217.582L360.483 214.314L364.331 219.562L347.612 224.416L343.758 219.185L349.261 217.582ZM445.647 211.105L448.87 215.622L434.703 211.455L431.478 206.957L445.647 211.105ZM482.931 232.805L488.624 237.542L489.545 238.844L481.868 232.446L480.957 231.162L482.931 232.805ZM755.722 258.808L655.293 239.874L650.091 207.914L748.843 218.946L755.722 258.808ZM703.905 478.136L612.335 417.204L629.412 384.186L725.119 436.921L703.905 478.136ZM245.866 600.256L268.794 529.643L294.313 531.766L284.954 579.198L280.175 603.422L245.866 600.256ZM416.323 210.644L419.62 215.222L403.536 214.53L399.942 209.564L416.038 210.248L416.323 210.644ZM648.387 208.069L650.473 220.887L653.576 239.95L575.275 257.69L574.987 257.755L571.354 234.211L648.387 208.069ZM430.374 573.919L394.73 587.185L380.981 518.932L407.341 508.959L427.962 567.115L430.374 573.919ZM219.015 355.59L222.717 360.284L220.601 375.249L216.891 370.567L219.015 355.59ZM357.663 223.369L365.462 221.105L369.294 226.341L352.593 231.178L348.748 225.957L357.663 223.369ZM493.503 244.44L494.396 245.701L486.739 239.315L485.849 238.061L493.503 244.44ZM485.433 459.197L505.939 439.279L562.01 481.436L534.184 508.366L485.433 459.197ZM355.26 495.262L372.21 492.691L360.615 510.466L351.185 524.922L325.584 528.724L355.26 495.262ZM374.538 492.298L391.659 487.766L379.379 517.578L353.653 524.313L374.538 492.298ZM429.395 471.486L433.795 493.786L423.221 499.094L408.926 506.269L412.672 479.914L429.395 471.486ZM410.84 480.665L407.077 507.142L394.67 511.836L381.562 516.795L393.767 487.163L410.84 480.665ZM283.199 485.425L297.629 490.338L268.427 507.173L242.186 522.3L220.318 514.694L283.199 485.425ZM244.751 522.877L299.923 491.071L315.257 494.177L268.02 527.731L247.287 523.406L244.751 522.877ZM270.712 527.992L317.684 494.626L333.731 495.879L315.61 511.879L295.066 530.018L280.246 528.785L270.712 527.992ZM570.335 367.756L555.965 364.259L565.422 339.429L641.282 348.205L628.545 381.925L570.335 367.756ZM532.851 509.515L502.264 533.539L461.565 478.184L484.119 460.364L494.307 470.64L532.851 509.515ZM448.39 459.389L463.26 447.623L482.63 459.287L460.534 476.746L448.39 459.389ZM478.013 433.363L504.046 438.669L484.067 458.075L464.635 446.374L478.013 433.363ZM540.904 389.809L533.965 391.53L503.323 399.129L511.228 383.932L552.921 366.65L545.127 381.671L540.904 389.809ZM518.096 366.067L563.201 340.432L559.016 351.42L554.148 364.202L534.481 372.355L512.162 381.607L518.096 366.067ZM522.684 347.965L570.129 313.787L564.142 337.848L518.75 363.647L522.684 347.965ZM502.162 401.27L539.474 392.017L524.609 414.253L492.353 415.957L502.162 401.27ZM491.045 417.834L523.086 416.14L505.554 437.138L479.381 431.805L491.045 417.834ZM596.573 341.217L565.948 337.674L572.191 312.584L650.172 312.394L641.849 346.455L596.573 341.217ZM570.736 311.167L523.028 345.534L524.922 329.877L573.564 287.156L572.626 295.123L570.736 311.167ZM573.817 284.588L555.784 300.427L524.952 327.506L524.792 312.104L573.47 260.969L573.606 270.218L573.817 284.588ZM563.234 480.142L507.137 437.967L525.263 416.259L587.815 450.754L586.595 452.213L563.234 480.142ZM588.91 449.323L526.326 414.81L541.788 391.68L609.862 417.959L604.955 425.305L588.91 449.323ZM610.806 416.403L542.694 390.108L555.238 365.933L627.777 383.59L619.425 399.739L610.806 416.403ZM654.438 274.888L604.114 280.699L575.513 284.002L575.154 259.562L653.726 241.762L654.346 270.593L654.438 274.888ZM573.378 258.522L524.518 309.849L522.294 294.907L569.85 235.66L573.378 258.522ZM520.558 294.845L523.084 311.808L523.235 326.318L523.267 329.355L521.774 341.693L521.103 347.234L519.437 353.874L516.611 365.14L510.197 381.939L509.859 382.824L500.928 399.993L496.269 406.968L489.976 416.389L486.655 420.367L477.141 431.761L465.691 442.897L462.654 445.85L446.723 458.454L432.473 467.551L429.6 469.384L427.935 470.223L411.565 478.472L400.825 482.559L392.889 485.58L379.871 489.025L373.855 490.618L354.766 493.513L335.908 494.239L317.57 492.808L299.992 489.247L292.538 486.709L283.465 483.619L268.213 476.044L254.422 466.631L244.999 457.999L239.292 448.453L237.882 445.077L233.023 433.448L229.597 420.253L228.894 417.546L226.933 400.97L227.106 389.03L227.18 383.957L229.598 366.738L234.163 349.556L236.726 343.04L240.816 332.643L249.444 316.241L259.939 300.569L272.16 285.848L285.922 272.283L296.915 263.408L301.065 260.058L310.145 254.087L317.366 249.339L334.604 240.301L352.532 233.067L370.935 227.738L379.807 226.142L389.51 224.397L408.04 223.119L426.221 223.932L430.08 224.564L443.822 226.815L451.762 229.165L460.555 231.767L470.518 236.186L476.206 238.709L490.502 247.557L503.255 258.19L509.425 265.086L515.753 278.705L520.558 294.845ZM275.159 259.563L276.487 261.313L279.161 264.837L266.553 277.265L262.537 272.008L275.159 259.563ZM347.005 226.526L349.272 229.604L350.888 231.799L334.542 238.395L330.646 233.147L346.649 226.67L347.005 226.526ZM315.686 248.319L300.776 258.122L296.804 252.859L311.735 243.04L314.479 246.705L315.686 248.319ZM299.373 259.154L285.519 270.338L281.533 265.082L295.393 253.881L299.373 259.154ZM290.339 247.169L294.329 252.47L280.465 263.674L276.46 258.397L290.339 247.169ZM271.634 283.901L267.629 278.671L269.931 276.401L280.231 266.248L284.215 271.501L271.634 283.901ZM317.188 247.419L313.253 242.161L314.355 241.582L329.019 233.876L332.942 239.159L317.188 247.419ZM312.171 240.715L308.216 235.429L324.003 227.124L327.943 232.427L312.171 240.715ZM266.439 279.984L270.431 285.197L259.295 298.611L255.295 293.415L263.319 283.744L266.439 279.984ZM258.2 300.046L248.673 314.273L244.684 309.124L254.226 294.882L255.725 296.83L258.2 300.046ZM239.063 332.405L233.113 347.532L231.246 345.152L229.206 342.552L235.162 327.411L239.063 332.405ZM227.865 366.814L225.764 381.766L223.959 379.488L222.063 377.095L223.789 364.894L224.179 362.139L227.865 366.814ZM225.471 384.205L225.263 398.589L221.773 394.203L221.981 379.8L225.471 384.205ZM226.853 414.816L223.697 410.863L223.644 410.408L222.117 397.437L225.266 401.393L226.853 414.816ZM230.372 430.048L227.817 426.853L224.729 414.952L227.283 418.151L230.372 430.048ZM231.488 434.237L235.378 443.546L234.087 441.937L231.858 436.591L230.209 432.638L231.488 434.237ZM441.758 220.82L455.45 224.852L457.838 228.203L458.638 229.326L444.507 225.144L441.313 220.689L441.758 220.82ZM461.378 230.175L458.536 226.186L471.174 231.787L474.012 235.779L461.378 230.175ZM477.164 237.211L474.943 234.088L485.545 240.638L487.766 243.773L477.164 237.211ZM499.24 252.545L491.599 246.174L490.719 244.933L498.364 251.309L499.24 252.545ZM480.675 233.77L482.908 236.92L472.293 230.361L470.056 227.217L480.675 233.77ZM424.527 222.049L408.461 221.331L404.886 216.395L420.963 217.087L424.527 222.049ZM426.775 222.196L423.355 217.436L432.91 219.001L438.634 219.938L442.047 224.697L426.775 222.196ZM402.704 216.347L403.391 217.296L406.381 221.425L389.81 222.568L386.126 217.499L393.659 216.975L402.704 216.347ZM384.114 217.689L384.984 218.886L387.871 222.86L371.11 225.876L367.332 220.712L374.703 219.384L384.114 217.689ZM243.747 310.761L247.695 315.857L239.909 330.657L235.948 325.583L241.984 314.11L243.747 310.761ZM228.602 344.607L232.417 349.469L228.382 364.653L224.56 359.804L225.386 356.695L228.602 344.607ZM216.935 390.92L220.101 394.902L221.681 408.336L218.514 404.364L216.935 390.92ZM453.76 222.48L439.61 218.314L436.4 213.828L450.562 217.992L453.76 222.48ZM433.727 213.08L435.388 215.402L436.901 217.516L436.896 217.515L437.15 217.868L421.867 215.366L418.43 210.594L429.065 212.322L433.727 213.08ZM397.76 209.518L401.319 214.435L401.457 214.625L384.874 215.776L381.165 210.686L397.76 209.518ZM306.699 236.308L308.875 239.216L310.67 241.616L295.732 251.438L291.748 246.146L293.107 245.252L306.699 236.308ZM261.348 273.321L263.115 275.635L265.35 278.561L254.203 291.996L250.187 286.78L261.348 273.321ZM220.306 377.686L220.098 392.097L216.591 387.684L216.732 378.248L216.807 373.27L220.306 377.686ZM222.11 411.671L225.2 423.583L224.233 422.373L223.881 421.931L223.883 421.936L222.626 420.364L219.544 408.454L222.11 411.671ZM197.764 503.594L267.75 477.806L281.091 484.434L239.118 503.971L217.954 513.822L212.547 511.084L197.764 503.594ZM218.305 515.892L241.079 523.816L231.663 544.468L209.817 592.382L179.31 581.411L218.305 515.892ZM297.796 529.958L336.218 496.034L352.802 495.395L334.866 515.621L322.927 529.083L311.872 529.469L297.796 529.958ZM435.356 492.869L430.965 470.621L446.976 460.401L457.16 474.955L459.115 477.749L452.516 481.949L435.356 492.869ZM650.517 310.588L572.5 310.779L575.439 285.826L654.334 276.716L651.1 305.419L650.517 310.588ZM569.437 233.388L536.093 274.928L521.74 292.809L517.489 278.53L562.78 211.614L569.437 233.388ZM475.788 226.882L476.216 227.485L478.039 230.055L467.405 223.492L465.155 220.322L475.788 226.882ZM468.022 227.358L469.139 228.928L456.499 223.326L453.647 219.324L466.285 224.919L468.022 227.358ZM382.936 216.07L366.147 219.095L362.353 213.92L379.153 210.879L382.936 216.07ZM345.832 224.933L345.909 225.038L329.544 231.661L325.629 226.394L342.016 219.755L345.55 224.551L345.832 224.933ZM238.621 304.154L242.585 309.261L234.783 324.089L231.923 320.416L230.811 318.988L235.548 309.991L238.621 304.154ZM230.025 320.817L233.936 325.838L227.976 340.985L225.342 337.63L224.052 335.985L227.047 328.379L230.025 320.817ZM223.447 338.038L227.279 342.921L223.235 358.125L219.396 353.256L219.441 353.086L223.447 338.038ZM214.918 385.578L211.399 381.147L211.615 366.721L215.134 371.158L214.918 385.578ZM225.009 426.135L226.315 427.768L230.208 437.103L228.896 435.469L227.312 431.666L225.009 426.135ZM242.751 524.3L267.078 529.374L244.147 599.999L244.144 600.009L211.5 592.845L242.751 524.3ZM319.116 602.367L324.106 530.766L350.882 526.789L355.227 597.273L337.05 599.837L319.116 602.367ZM356.914 596.929L352.57 526.455L379.343 519.447L393.091 587.705L356.914 596.929ZM408.918 508.27L434.413 495.474L440.034 506.1L466.49 556.109L431.951 573.233L408.918 508.27ZM503.315 534.962L534.071 510.804L539.782 517.236L607.321 593.302L568.881 623.217L503.315 534.962ZM644.81 557.242L564.565 481.273L589.293 451.709L642.918 494.362L675.687 520.426L644.81 557.242ZM590.351 450.292L611.432 418.735L703.005 479.669L676.749 519.013L590.351 450.292ZM413.495 203.734L428.802 206.212L432.245 211.013L416.942 208.527L413.495 203.734ZM285.276 240.446L289.276 245.758L275.392 256.99L271.371 251.694L276.091 247.876L285.276 240.446ZM270.069 252.861L271.125 254.251L274.088 258.153L261.463 270.601L257.437 265.333L270.069 252.861ZM260.26 271.897L249.095 285.361L245.06 280.125L256.248 266.646L260.26 271.897ZM249.118 288.247L253.109 293.43L243.562 307.678L239.557 302.517L244.337 295.382L249.118 288.247ZM241.473 457.156L252.135 466.923L175.58 488.417L159.56 473.449L241.473 457.156ZM177.419 489.768L253.767 468.332L265.866 476.59L235.99 487.598L195.645 502.463L184.622 494.786L177.419 489.768ZM195.773 504.588L216.707 515.192L189.273 561.287L177.701 580.73L149.73 566.17L195.773 504.588ZM149.031 567.817L176.787 582.265L176.716 582.384L177.088 582.518L166.948 677.319L132.331 658.718L149.031 567.817ZM168.581 678.1L178.741 583.112L209.07 594.02L209.014 594.142L209.383 594.223L207.124 669.882L206.456 692.285L168.581 678.1ZM281.909 603.46L296.043 531.825L322.387 530.909L317.396 602.526L305.39 602.842L281.909 603.46ZM467.997 555.264L435.915 494.62L460.15 479.196L500.838 534.538L486.534 543.565L467.997 555.264ZM608.648 592.161L535.385 509.65L563.371 482.564L643.606 558.524L608.648 592.161ZM742.175 391.183L709.464 376.507L643.499 346.91L651.87 312.653L752.389 348.377L742.175 391.183ZM752.678 346.576L702.988 328.916L652.202 310.867L656.04 276.823L757.156 304.056L752.678 346.576ZM757.197 302.204L729.135 294.647L656.146 274.989L655.431 241.733L755.951 260.685L757.197 302.204ZM748.323 217.073L681.392 209.596L649.79 206.066L649.733 205.716L649.601 205.76L640.169 175.899L736.024 179.508L748.323 217.073ZM396.377 207.606L396.514 207.796L379.912 208.966L376.192 203.855L392.808 202.669L393.509 203.639L396.377 207.606ZM337 212.964L337.775 214.013L340.918 218.267L324.526 224.909L320.602 219.624L331.404 215.237L337 212.964ZM224.871 314.209L228.799 319.242L222.823 334.416L218.887 329.39L224.871 314.209ZM219.81 419.635L221.123 421.277L225.011 430.615L224.766 430.309L223.695 428.97L223.503 428.509L219.81 419.635ZM211.077 594.595L220.551 596.674L243.585 601.73L243.545 601.852L243.893 601.884L244.43 612.925L248.777 702.296L208.145 692.828L211.077 594.595ZM341.105 706.455L319.226 604.172L355.338 599.079L355.344 599.185L355.559 599.13L386.301 700.587L341.105 706.455ZM638.456 176.169L647.978 206.311L570.944 232.454L564.121 210.138L638.456 176.169ZM562.078 209.554L516.685 276.62L510.461 263.228L552.411 189.215L555.729 196.197L562.078 209.554ZM411.103 203.389L413.007 206.035L414.515 208.132L414.696 208.385L398.592 207.7L394.987 202.714L406.863 203.211L411.103 203.389ZM364.966 205.725L374.181 204.05L377.865 209.11L377.974 209.261L361.167 212.303L357.361 207.108L364.966 205.725ZM355.493 207.504L359.262 212.647L359.352 212.772L342.622 217.644L338.742 212.393L346.649 210.085L355.493 207.504ZM301.646 229.556L305.634 234.883L290.679 244.726L286.685 239.422L294.841 234.043L301.646 229.556ZM243.991 281.592L248 286.796L238.436 301.07L235.146 296.821L234.42 295.883L242.554 283.737L243.991 281.592ZM213.832 349.02L217.554 353.737L215.428 368.723L211.699 364.019L212.583 357.799L213.832 349.02ZM222.509 430.377L229.907 442.748L143.187 453.223L132.2 434.396L222.509 430.377ZM175.477 490.577L194.282 503.674L170.12 535.991L148.228 565.271L123.165 547.381L175.477 490.577ZM130.428 659.62L130.418 659.674L104.863 640.948L104.761 640.832L111.31 645.625L130.428 659.62ZM137.287 664.69L135.192 662.279L138.684 664.155L166.744 679.233L166.734 679.323L167.172 679.487L169.229 681.865L137.287 664.69ZM181.648 684.908L206.399 694.179L206.397 694.268L206.822 694.367L209.701 697.725L173.509 684.142L170.59 680.767L181.648 684.908ZM250.499 702.611L245.607 602.043L279.824 605.201L279.8 605.321L280.114 605.313L288.556 670.454L293.306 707.111L250.499 702.611ZM295.039 707.209L281.829 605.267L317.27 604.335L317.262 604.448L317.53 604.411L339.38 706.563L295.039 707.209ZM357.221 598.706L393.446 589.47L393.466 589.568L393.624 589.509L400.422 606.576L433.33 689.193L387.999 700.284L357.221 598.706ZM526.19 649.914L468.88 556.808L501.896 535.97L544.353 593.12L567.449 624.208L526.19 649.914ZM573.83 629.779L569.942 624.632L608.44 594.672L612.287 599.875L573.83 629.779ZM727.289 436.477L727.447 436.169L727.358 436.12L742.974 394.299L746.472 399.487L730.774 441.562L727.289 436.477ZM758.967 303.136L759.014 302.693L758.916 302.667L757.725 262.964L760.549 267.301L761.772 307.402L758.967 303.136ZM475.865 224.84L462.904 216.843L482.328 122.082L502.107 133.925L475.865 224.84ZM445.434 209.17L430.154 204.696L434.341 105.008L457.477 111.45L445.434 209.17ZM319.213 168.722L336.121 211.286L335.824 211.372L335.902 211.477L319.617 218.09L273.602 126.339L298.3 116.076L319.213 168.722ZM261.482 243.078L268.952 251.496L256.263 264.024L181.958 193.587L200.901 174.805L261.482 243.078ZM255.077 265.322L243.825 278.878L163.959 215.2L180.77 194.882L255.077 265.322ZM216.877 330.065L212.889 345.013L212.71 344.785L212.579 345.704L206.952 343.698L118.679 312.232L125.086 288.726L216.877 330.065ZM209.936 364.987L209.725 379.039L209.342 378.557L209.554 380.369L114.139 362.542L114.683 339.339L209.936 364.987ZM209.773 382.242L211.303 395.336L210.656 394.515L211.349 397.192L167.474 392.45L116.667 386.959L114.245 364.394L209.773 382.242ZM216.09 415.17L221.681 428.607L131.262 432.631L123.04 412.262L216.09 415.17ZM122.348 548.974L147.168 566.69L147.083 566.803L147.445 566.991L130.783 657.686L99.8713 635.059L122.348 548.974ZM240.084 702.118L248.869 704.165L248.873 704.253L249.273 704.295L252.58 708.192L213.058 698.954L209.699 695.038L240.084 702.118ZM461.463 681.029L480.52 674.132L480.556 674.204L480.694 674.137L481.422 675.063L484.548 679.039L439.902 695.17L435.968 690.257L461.463 681.029ZM481.307 671.853L432.652 574.879L467.372 557.664L480.634 579.21L524.667 650.746L481.307 671.853ZM757.459 352.307L755.376 349.178L754.33 347.606L754.428 347.198L754.332 347.164L758.681 305.859L761.835 310.655L757.459 352.307ZM750.373 217.768L750.291 217.292L750.195 217.282L739.534 184.718L740.483 186.19L751.297 219.193L750.373 217.768ZM735.194 177.672L639.592 174.072L639.485 173.733L639.363 173.789L625.867 146.162L717.785 142.95L735.194 177.672ZM637.793 174.506L609.409 187.478L563.471 208.469L553.607 187.717L624.134 146.545L637.793 174.506ZM551.458 187.389L509.437 261.526L501.327 249.223L538.918 168.792L539.556 169.738L551.458 187.389ZM537.754 167.213L500.116 247.741L490.232 236.703L522.551 150.642L524.218 152.46L537.754 167.213ZM461.323 216.043L447.082 209.749L459.121 112.05L480.755 121.246L461.323 216.043ZM406.631 100.858L408.501 147.747L410.647 201.564L393.958 200.864L381.519 100.113L386.894 100.272L406.631 100.858ZM272.04 127.073L318.013 218.742L317.834 218.814L317.9 218.904L302.141 227.198L248.329 139.772L272.04 127.073ZM162.901 216.617L195.269 242.424L242.768 280.296L233.3 294.436L233.214 294.325L233.042 294.651L148.447 238.179L162.901 216.617ZM232.211 296.23L224.491 310.889L224.386 310.754L224.2 311.226L135.613 262.23L147.535 239.704L232.211 296.23ZM118.319 314.008L212.322 347.517L210.237 362.176L209.983 361.856L209.964 363.132L114.82 337.513L118.319 314.008ZM117.033 388.814L211.832 399.057L214.815 410.597L213.495 408.936L215.328 413.342L190.9 412.578L122.394 410.436L117.033 388.814ZM99.9472 525.377L157.674 474.094L173.599 488.974L173.297 489.058L174.027 489.566L164.649 499.749L121.804 546.272L99.9472 525.377ZM255.401 708.815L251.79 704.56L269.557 706.428L293.545 708.949L293.556 709.035L293.919 709.029L297.468 713.26L255.401 708.815ZM392.909 706.693L388.995 701.893L395.237 700.366L434.004 690.881L434.034 690.957L434.236 690.884L434.766 691.546L438.073 695.677L392.909 706.693ZM531.127 656.458L527.209 651.373L536.863 645.358L568.512 625.64L568.562 625.706L568.567 625.702L572.394 630.769L531.127 656.458ZM463.36 36.364L433.074 102.79L432.731 102.694L432.726 102.82L408.591 99.2373L430.486 31.7963L463.36 36.364ZM179.434 193.759L162.594 214.112L162.526 214.057L162.449 214.173L108.275 184.304L130.724 157.13L179.434 193.759ZM223.541 312.898L217.658 327.821L217.522 327.647L217.344 328.314L128.582 288.339L125.65 287.018L134.866 263.854L223.541 312.898ZM140.598 668.495L172.499 685.648L174.574 688.049L142.663 670.868L140.598 668.495ZM486.233 678.361L482.298 673.357L498.877 665.287L525.608 652.275L525.651 652.344L525.723 652.3L529.231 656.853L529.572 657.295L486.233 678.361ZM574.895 631.19L613.338 601.297L613.394 601.372L617.174 606.472L578.764 636.317L574.895 631.19ZM650.885 565.312L650.836 565.244L668.208 544.532L681.681 528.47L681.757 528.577L682.828 530.082L685.422 533.73L654.612 570.451L650.885 565.312ZM765.636 313.272L763.561 310.121L762.339 270.047L765.153 274.365L766.392 314.42L765.636 313.272ZM764.442 270.096L764.074 269.532L762.199 266.654L758.249 243.783L755.738 229.247L757.968 232.695L764.442 270.096ZM754.948 224.832L750.263 210.532L744.15 191.872L745.078 193.311L755.884 226.278L754.948 224.832ZM623.23 145.012L621.295 146.142L552.729 186.167L539.984 167.267L605.7 119.626L621.561 142.596L623.23 145.012ZM604.574 118.254L550.258 157.631L538.896 165.868L523.495 149.081L583.482 95.7756L604.574 118.254ZM556.387 74.3579L502.971 132.368L483.027 120.427L529.283 58.5546L556.387 74.3579ZM496.511 45.0846L458.077 109.661L457.717 109.507L457.7 109.646L434.754 103.257L465.105 36.6866L496.511 45.0846ZM428.721 31.6835L406.871 98.982L406.554 98.9349L406.559 99.0499L381.587 98.3101L394.87 30.9829L428.721 31.6835ZM107.184 185.737L161.452 215.659L147.193 236.931L147.003 237.215L146.926 237.164L146.842 237.323L93.0043 216.545L87.8444 214.554L107.184 185.737ZM57.0904 280.605L123.435 288.278L119.921 301.166L117.062 311.656L116.949 311.616L116.905 311.911L48.3947 312.082L57.0904 280.605ZM112.528 364.387L114.93 386.772L114.76 386.753L114.868 387.185L45.1267 410.85L42.0742 380.343L112.528 364.387ZM45.4119 412.649L115.301 388.934L118.555 402.059L120.618 410.38L120.425 410.374L120.615 410.846L52.4223 442.001L45.4119 412.649ZM52.9515 443.725L121.284 412.505L129.44 432.712L129.22 432.722L129.514 433.226L106.83 446.467L63.8777 471.538L52.9515 443.725ZM64.6436 473.153L130.411 434.764L141.315 453.449L141.067 453.479L141.487 454.004L79.3781 499.045L64.6436 473.153ZM99.0205 526.924L105.571 533.186L120.613 547.566L120.519 547.668L120.857 547.91L98.4393 633.768L71.5982 607.51L99.0205 526.924ZM260.685 715.033L257.095 710.808L267.304 711.887L299.137 715.249L299.175 715.294L302.319 719.037L302.711 719.504L260.685 715.033ZM347.368 714.444L392.251 708.648L396.057 713.325L351.208 719.077L347.368 714.444ZM445.003 701.543L441.087 696.65L485.716 680.525L489.592 685.46L445.003 701.543ZM618.492 605.328L614.66 600.154L649.619 566.53L653.411 571.757L618.492 605.328ZM735.479 448.422L732.279 443.757L731.961 443.295L747.653 401.234L751.14 406.395L735.479 448.422ZM758.941 354.533L763.314 312.901L766.456 317.671L762.098 359.281L758.941 354.533ZM527.679 57.7931L518.485 70.0906L481.467 119.604L459.685 110.345L498.204 45.6257L527.679 57.7931ZM357.026 34.4597L353.434 85.9528L352.411 100.619L352.163 100.64L352.183 100.738L326.604 105.662L322.635 41.3226L357.026 34.4597ZM320.954 41.7658L324.915 105.988L324.709 106.027L324.737 106.119L299.407 113.781L287.017 52.2483L320.954 41.7658ZM250.804 67.522L253.668 75.5999L271.308 125.353L271.2 125.398L271.24 125.479L253.015 135.24L247.44 138.225L219.105 84.6641L250.804 67.522ZM217.626 85.5595L245.917 139.041L245.862 139.071L245.908 139.146L223.365 154.187L187.697 105.677L217.626 85.5595ZM157.205 130.672L199.698 173.525L180.683 192.379L180.623 192.322L180.563 192.395L131.932 155.824L157.205 130.672ZM86.8901 216.106L145.997 238.918L139.363 251.453L134.101 261.394L134.014 261.346L133.933 261.55L70.9136 246.211L86.8901 216.106ZM70.1186 247.868L133.26 263.239L130.071 271.256L124.081 286.312L123.983 286.268L123.914 286.517L114.74 285.456L57.705 278.86L70.1186 247.868ZM116.636 313.717L114.754 326.362L113.16 337.067L113.031 337.032L113.023 337.374L43.1407 345.439L47.9819 313.888L116.636 313.717ZM42.9489 347.277L112.981 339.194L112.441 362.224L112.294 362.197L112.335 362.584L42.0311 378.506L42.9489 347.277ZM218.378 705.163L215.039 701.266L254.537 710.497L254.575 710.542L256.447 712.744L257.859 714.406L218.378 705.163ZM398.056 713.016L394.167 708.237L439.313 697.226L439.353 697.276L442.672 701.422L443.173 702.047L398.056 713.016ZM491.278 684.782L487.362 679.799L517.129 665.329L530.685 658.739L534.561 663.773L491.278 684.782ZM751.726 404.16L749.23 400.466L748.359 399.176L758.43 356.901L761.775 361.93L751.726 404.16ZM694.473 109.811L716.628 141.184L624.998 144.386L624.844 144.07L624.734 144.134L607.467 119.126L694.473 109.811ZM760.456 233.347L759.543 231.935L752.147 209.373L748.756 199.026L749.654 200.422L760.456 233.347ZM692.978 108.157L606.301 117.437L606.101 117.148L606.005 117.217L585.298 95.149L666.543 80.5443L692.978 108.157ZM616.824 58.181L557.968 73.1631L557.69 72.9426L557.621 73.0175L531.219 57.6229L598.865 35.0895L632.316 54.2373L616.824 58.181ZM596.362 34.0311L557.894 46.8454L529.154 56.4188L528.842 56.2368L528.786 56.3125L521.396 53.2623L500.191 44.5094L560.255 19.4086L596.362 34.0311ZM528.829 30.6006L497.855 43.5453L497.511 43.4034L497.466 43.4787L467.119 35.3638L519.261 8.65409L557.453 18.6384L528.829 30.6006ZM473.286 2.79976L450.757 16.8017L429.727 29.871L429.327 29.8155L429.303 29.8913L396.77 29.2178L432.646 2.0974L473.286 2.79976ZM421.351 8.41769L393.914 29.1587L393.49 29.1499L393.475 29.2246L360.457 32.2226L388.259 6.2278L429.336 2.38137L421.351 8.41769ZM380.341 11.2234L357.605 32.4812L357.161 32.5218L357.156 32.5971L352.757 33.4748L324.01 39.212L343.988 15.1436L385.009 6.85877L380.341 11.2234ZM217.031 83.6598L217.038 83.7558L216.753 83.9096L216.792 83.9827L191.295 101.121L186.67 104.23L179.647 93.9321L216.036 69.4343L217.031 83.6598ZM178.252 94.9702L181.769 100.127L185.228 105.2L185.2 105.218L185.251 105.288L157.267 128.241L157.214 128.187L157.032 128.368L144.496 122.685L178.252 94.9702ZM110.804 156.099L128.766 156.758L106.718 183.446L106.655 183.41L106.42 183.761L83.9288 188.639L110.804 156.099ZM82.1229 190.873L92.0099 188.728L104.972 185.917L86.1831 213.912L86.1136 213.886L85.9093 214.27L59.0983 225.192L82.1229 190.873ZM57.3596 227.834L84.6 216.737L77.3872 230.328L69.182 245.789L69.1073 245.771L68.9454 246.175L38.3579 263.601L57.3596 227.834ZM36.8418 266.514L67.8817 248.83L64.7223 256.718L55.9353 278.656L55.8552 278.647L55.7403 279.062L22.0343 303.378L36.8418 266.514ZM20.8443 306.42L54.9869 281.789L52.8589 289.492L46.6169 312.086L46.531 312.086L46.4665 312.507L10.4046 343.991L20.8443 306.42ZM9.59016 347.043L46.052 315.208L44.2452 326.984L41.3825 345.642L41.2909 345.652L41.2785 346.073L39.7426 347.661L3.69654 384.916L9.59016 347.043ZM3.27331 387.875L41.2021 348.674L40.427 375.07L40.3146 378.895L40.2171 378.917L40.2587 379.333L25.0783 397.705L2.04418 425.58L3.27331 387.875ZM1.99508 428.38L40.5034 381.778L43.4691 411.412L43.3669 411.447L43.4637 411.851L5.54176 465.433L1.99508 428.38ZM5.8385 468.024L44.0009 414.102L50.8372 442.725L50.7319 442.773L50.8838 443.16L23.912 487.854L14.2066 503.937L5.8385 468.024ZM14.8104 506.288L51.6813 445.191L59.4905 465.07L62.376 472.415L62.269 472.478L62.475 472.84L27.9764 540.547L14.8104 506.288ZM223.68 711.34L220.363 707.475L238.426 711.704L259.821 716.714L261.552 718.751L263.131 720.61L223.68 711.34ZM265.96 721.239L262.379 717.027L304.384 721.495L307.222 724.88L307.942 725.739L265.96 721.239ZM310.408 725.963L306.677 721.511L325.531 721.264L350.482 720.938L354.187 725.416L310.408 725.963ZM356.391 725.343L352.568 720.721L397.397 714.971L397.435 715.018L398.406 716.209L401.191 719.628L356.391 725.343ZM403.193 719.321L399.315 714.562L422.593 708.903L444.413 703.599L447.383 707.311L448.254 708.4L403.193 719.321ZM492.407 686.22L509.646 677.852L535.673 665.218L535.719 665.277L539.54 670.234L496.305 691.184L492.407 686.22ZM619.548 606.752L654.452 573.193L655.083 574.064L658.225 578.402L623.363 611.905L619.548 606.752ZM659.427 577.096L655.717 571.976L655.669 571.908L686.468 535.201L687.372 536.475L690.191 540.443L659.427 577.096ZM691.27 538.959L687.623 533.825L687.577 533.76L713.737 494.564L717.393 499.805L691.27 538.959ZM718.335 498.118L716.922 496.093L714.73 492.95L735.804 451.971L739.373 457.182L718.335 498.118ZM736.707 450.214L736.666 450.153L752.32 408.144L755.79 413.292L740.156 455.251L736.707 450.214ZM766.72 366.226L765.69 364.679L763.581 361.508L767.935 319.922L771.051 324.665L766.72 366.226Z" fill="#0A1629"/>
</svg>
