<svg width="539" height="927" viewBox="0 0 539 927" fill="none" xmlns="http://www.w3.org/2000/svg">
<path d="M1077.99 925.974H898.5L854.494 869.286L813.871 816.958L776.247 768.495L741.31 723.479L708.773 681.57L678.404 642.455L649.985 605.847L623.339 571.536L598.315 539.288M1078 925.974V1.02614M1.06818 771.811V155.162M1.06818 771.811V925.974H180.514L224.437 869.286L264.993 816.958L302.549 768.495L337.431 723.479L369.914 681.57L400.228 642.455L428.593 605.847L455.184 571.536L480.167 539.288H627.77L665.299 571.536M1.06818 771.811L66.988 734.002L127.849 699.091L184.209 666.765L236.547 636.763L285.284 608.824L330.777 582.738L373.337 558.324L413.238 535.45L450.725 513.96V387.189L413.238 354.993M1.06818 1H1077.99M898.514 926H180.555M66.9744 57.6618V869.312H1011.98L951.056 816.984M951.056 816.984H127.835V109.911M951.056 816.984V109.911L1011.98 57.6357H66.988L1.06818 1.02614V155.189L66.988 192.92L127.849 227.752L184.209 260L236.547 289.95L285.284 317.837L330.777 343.87L373.337 368.232L413.238 391.079L450.725 412.543M127.835 109.911L66.9744 57.6357M127.835 109.911H813.857L854.481 57.6357L898.486 1.02614M894.641 768.521H184.196V158.322M842.249 723.505H236.533V203.26M1077.99 1.05227L1012 57.6618V192.946L951.07 227.778L894.655 260.026L842.262 289.976L793.47 317.863L747.923 343.896L705.309 368.258L665.353 391.106L627.825 412.569V513.986L665.353 535.476L705.309 558.35L747.923 582.764L793.47 608.85L842.262 636.789L894.655 666.791L951.07 699.117L1012 734.028V869.312L1077.99 926M793.443 681.57H285.257V245.09M951.056 109.885L894.641 158.27M894.641 158.27V768.469L951.056 816.932M894.641 158.27H184.196L127.835 109.885M1077.99 155.162L1012 192.893V734.002L1077.99 771.811M180.555 1.02614L224.478 57.6357L265.034 109.911L302.589 158.296L337.472 203.233L369.955 245.09L400.269 284.153L428.634 320.709L455.225 354.967L480.208 387.163H598.288L623.311 354.967L649.957 320.709L678.376 284.153L708.745 245.09L741.282 203.233L776.22 158.296L813.843 109.911H951.042M894.627 158.296L842.235 203.233V723.479L894.627 768.495M184.168 158.296L236.506 203.233H842.221M718.986 925.974L696.963 869.286L676.631 816.958L657.798 768.495L640.316 723.479L624.034 681.57L608.829 642.455L594.606 605.847L581.269 571.536L568.737 539.288M360 925.974L381.941 869.286L402.206 816.958L420.97 768.495L438.397 723.479L454.625 681.57L469.776 642.455L483.944 605.847L497.226 571.536L509.704 539.288M330.749 284.153V642.455H747.869L705.254 605.847M450.698 488.58L413.21 499.338L373.309 510.801L330.749 523.021L285.257 536.077L236.52 550.073L184.182 565.087L127.821 581.276L66.9608 598.744L1.04091 617.675M450.67 437.897L413.183 427.192L373.282 415.781L330.722 403.613L285.23 390.61L236.492 376.666L184.155 361.704L127.794 345.593L66.9335 328.203L1.01364 309.35M842.194 203.233L793.402 245.09V681.57L842.194 723.479M236.479 203.233L285.216 245.09H793.416M539.486 925.974L539.445 869.286L539.405 816.958L539.377 768.495L539.35 723.479L539.323 681.57L539.295 642.455L539.268 605.847L539.241 571.536L539.214 539.288M450.657 463.226H413.17L373.269 463.278H330.708L285.216 463.33H236.479L184.141 463.382H127.78L66.9199 463.46L1 463.513M793.388 245.09L747.842 284.153M747.842 284.153V642.455L793.388 681.57M747.842 284.153H330.681M285.189 245.09L330.681 284.153M330.681 284.153L373.241 320.709H705.241L747.855 284.153M705.254 605.847V320.709L665.299 354.967H413.156L373.255 320.709V605.847H705.254ZM413.21 571.536L450.698 539.288V513.934M665.38 354.993V571.562M665.38 571.562L705.336 605.873M665.38 571.562H413.238L373.337 605.873L330.777 642.481L285.284 681.596L236.547 723.505L184.209 768.521L127.849 816.984L66.988 869.312L1.06818 926M413.21 354.993V571.562M1077.97 617.675L1011.98 598.744L951.056 581.276L894.641 565.087L842.249 550.073L793.456 536.077L747.91 523.021L705.295 510.801L665.34 499.338L627.811 488.58M1077.97 309.324L1011.98 328.177L951.056 345.567L894.641 361.678L842.249 376.64L793.456 390.583L747.91 403.587L705.295 415.755L665.34 427.166L627.811 437.871M568.778 387.163L581.31 354.967L594.647 320.709L608.87 284.153L624.075 245.09L640.357 203.233L657.839 158.296L676.672 109.911L697.004 57.6357L719.027 1.02614M509.758 387.163L497.281 354.967L483.999 320.709L469.83 284.153L454.68 245.09L438.452 203.233L421.024 158.296L402.26 109.911L381.996 57.6357L360.055 1.02614M1078 463.513L1012.01 463.46H951.083L894.668 463.382H842.276L793.484 463.33H747.937L705.322 463.278H665.367L627.839 463.226M539.282 387.163L539.309 354.967L539.336 320.709L539.364 284.153L539.391 245.09L539.418 203.233L539.445 158.296L539.473 109.911L539.514 57.6357L539.555 1.02614M627.852 387.163V412.517M450.739 387.163H480.262M598.342 387.163H627.866L665.394 354.967M627.866 513.934V539.288M480.262 539.288H450.739" stroke="#686868" stroke-width="1.08501" stroke-linecap="round" stroke-linejoin="round"/>
</svg>
