<svg width="539" height="327" viewBox="0 0 539 327" fill="none" xmlns="http://www.w3.org/2000/svg">
<path d="M0 324.447V2.55313L73.4033 57.6298V269.37L73.2068 269.517L0 324.447ZM0.983637 4.51352V322.486L72.4197 268.883V58.1165L0.983637 4.51352Z" fill="#10162F"/>
<path d="M17.8178 16.1655H16.834V310.833H17.8178V16.1655Z" fill="#10162F"/>
<path d="M32.1916 26.9492H31.208V300.05H32.1916V26.9492Z" fill="#10162F"/>
<path d="M44.602 36.2614H43.6182V290.737H44.602V36.2614Z" fill="#10162F"/>
<path d="M55.4309 44.3848H54.4473V282.614H55.4309V44.3848Z" fill="#10162F"/>
<path d="M64.9573 51.5337H63.9736V275.465H64.9573V51.5337Z" fill="#10162F"/>
<path d="M72.631 249.472L0.25293 293.999L0.771048 294.831L73.1491 250.304L72.631 249.472Z" fill="#10162F"/>
<path d="M0.704236 265.737L0.277344 264.856L72.6969 230.276L73.1239 231.157L0.704236 265.737Z" fill="#10162F"/>
<path d="M0.650668 236.673L0.333984 235.75L72.7537 211.05L73.0704 211.973L0.650668 236.673Z" fill="#10162F"/>
<path d="M0.589306 207.605L0.392578 206.648L72.8123 191.829L73.009 192.786L0.589306 207.605Z" fill="#10162F"/>
<path d="M72.8789 172.615L0.458984 177.553L0.52629 178.528L72.9462 173.591L72.8789 172.615Z" fill="#10162F"/>
<path d="M0.526299 148.47L0.458984 149.445L72.8788 154.384L72.9461 153.409L0.526299 148.47Z" fill="#10162F"/>
<path d="M72.8123 135.17L0.392578 120.351L0.589306 119.394L73.009 134.214L72.8123 135.17Z" fill="#10162F"/>
<path d="M72.7537 115.949L0.333984 91.2489L0.650668 90.3258L73.0704 115.026L72.7537 115.949Z" fill="#10162F"/>
<path d="M72.6969 96.7225L0.277344 62.1424L0.704236 61.2622L73.1239 95.8424L72.6969 96.7225Z" fill="#10162F"/>
<path d="M0.751763 32.2009L0.234375 33.0338L72.6541 77.4936L73.1715 76.6607L0.751763 32.2009Z" fill="#10162F"/>
<path d="M101.698 324.657V2.3432L102.54 3.18992L156.612 57.6729V269.327L156.47 269.47L101.698 324.657ZM102.682 4.72365V322.277L155.628 268.927V58.0736L102.682 4.72365Z" fill="#10162F"/>
<path d="M115.219 16.1656H114.235V310.834H115.219V16.1656Z" fill="#10162F"/>
<path d="M125.921 26.9493H124.938V300.05H125.921V26.9493Z" fill="#10162F"/>
<path d="M135.163 36.2616H134.18V290.738H135.163V36.2616Z" fill="#10162F"/>
<path d="M143.227 44.385H142.243V282.614H143.227V44.385Z" fill="#10162F"/>
<path d="M150.321 51.5339H149.337V275.465H150.321V51.5339Z" fill="#10162F"/>
<path d="M102.505 294.757L101.876 294.006L155.806 249.546L156.434 250.298L102.505 294.757Z" fill="#10162F"/>
<path d="M155.85 230.302L101.926 264.891L102.458 265.711L156.382 231.122L155.85 230.302Z" fill="#10162F"/>
<path d="M102.397 236.655L101.984 235.768L155.914 211.068L156.327 211.955L102.397 236.655Z" fill="#10162F"/>
<path d="M102.322 207.598L102.059 206.656L155.988 191.836L156.252 192.778L102.322 207.598Z" fill="#10162F"/>
<path d="M156.071 172.59L102.146 177.581L102.238 178.554L156.163 173.563L156.071 172.59Z" fill="#10162F"/>
<path d="M102.236 148.471L102.146 149.444L156.075 154.383L156.165 153.41L102.236 148.471Z" fill="#10162F"/>
<path d="M155.988 135.163L102.059 120.344L102.322 119.402L156.252 134.221L155.988 135.163Z" fill="#10162F"/>
<path d="M155.914 115.931L101.984 91.231L102.397 90.344L156.327 115.044L155.914 115.931Z" fill="#10162F"/>
<path d="M102.455 61.2921L101.923 62.1127L155.853 96.6928L156.385 95.8722L102.455 61.2921Z" fill="#10162F"/>
<path d="M155.806 77.4529L101.876 32.9929L102.505 32.2417L156.434 76.7017L155.806 77.4529Z" fill="#10162F"/>
<path d="M182.591 325.215V1.78506L216.702 57.7373V269.263L216.629 269.38L182.591 325.215ZM183.574 5.28162V321.718L215.718 268.991V58.0091L183.574 5.28162Z" fill="#10162F"/>
<path d="M191.276 16.1654H190.293V310.833H191.276V16.1654Z" fill="#10162F"/>
<path d="M197.85 26.9491H196.866V300.05H197.85V26.9491Z" fill="#10162F"/>
<path d="M203.527 36.2614H202.543V290.737H203.527V36.2614Z" fill="#10162F"/>
<path d="M208.48 44.3848H207.496V282.614H208.48V44.3848Z" fill="#10162F"/>
<path d="M212.84 51.5338H211.856V275.465H212.84V51.5338Z" fill="#10162F"/>
<path d="M215.795 249.616L182.707 294.105L183.499 294.687L216.587 250.198L215.795 249.616Z" fill="#10162F"/>
<path d="M215.857 230.382L182.726 264.958L183.436 265.631L216.567 231.054L215.857 230.382Z" fill="#10162F"/>
<path d="M215.914 211.118L182.79 235.823L183.38 236.605L216.504 211.9L215.914 211.118Z" fill="#10162F"/>
<path d="M216.012 191.87L182.877 206.672L183.28 207.563L216.415 192.762L216.012 191.87Z" fill="#10162F"/>
<path d="M183.155 178.524L183.011 177.558L216.138 172.619L216.282 173.585L183.155 178.524Z" fill="#10162F"/>
<path d="M216.138 154.38L183.011 149.44L183.155 148.474L216.282 153.414L216.138 154.38Z" fill="#10162F"/>
<path d="M183.284 119.426L182.88 120.318L216.007 135.137L216.41 134.246L183.284 119.426Z" fill="#10162F"/>
<path d="M183.378 90.3962L182.788 91.1786L215.915 115.879L216.505 115.096L183.378 90.3962Z" fill="#10162F"/>
<path d="M183.438 61.3659L182.728 62.0384L215.855 96.6184L216.565 95.946L183.438 61.3659Z" fill="#10162F"/>
<path d="M183.478 32.3259L182.687 32.9086L215.814 77.3685L216.605 76.7859L183.478 32.3259Z" fill="#10162F"/>
<path d="M241.144 327V0L257.534 57.873L257.515 269.259L241.144 327ZM242.127 7.06662V319.933L256.551 269.059V57.9412L242.127 7.06662Z" fill="#10162F"/>
<path d="M245.71 16.1654H244.727V310.833H245.71V16.1654Z" fill="#10162F"/>
<path d="M248.767 26.9491H247.783V300.05H248.767V26.9491Z" fill="#10162F"/>
<path d="M251.406 36.2614H250.423V290.737H251.406V36.2614Z" fill="#10162F"/>
<path d="M253.71 44.3848H252.727V282.614H253.71V44.3848Z" fill="#10162F"/>
<path d="M255.737 51.5337H254.753V275.465H255.737V51.5337Z" fill="#10162F"/>
<path d="M242.1 294.54L241.169 294.223L256.576 249.763L257.507 250.08L242.1 294.54Z" fill="#10162F"/>
<path d="M256.609 230.524L241.175 265.093L242.072 265.489L257.506 230.92L256.609 230.524Z" fill="#10162F"/>
<path d="M256.633 211.258L241.211 235.949L242.046 236.464L257.468 211.774L256.633 211.258Z" fill="#10162F"/>
<path d="M256.71 191.963L241.29 206.769L241.971 207.47L257.391 192.664L256.71 191.963Z" fill="#10162F"/>
<path d="M256.89 172.634L241.484 177.579L241.787 178.509L257.192 173.564L256.89 172.634Z" fill="#10162F"/>
<path d="M241.786 148.492L241.484 149.423L256.892 154.362L257.193 153.432L241.786 148.492Z" fill="#10162F"/>
<path d="M241.978 119.522L241.296 120.222L256.703 135.042L257.385 134.341L241.978 119.522Z" fill="#10162F"/>
<path d="M242.054 90.5299L241.219 91.0447L256.626 115.745L257.461 115.23L242.054 90.5299Z" fill="#10162F"/>
<path d="M242.083 61.5047L241.186 61.9L256.593 96.48L257.49 96.0848L242.083 61.5047Z" fill="#10162F"/>
<path d="M256.576 77.2359L241.169 32.7759L242.1 32.4586L257.507 76.9186L256.576 77.2359Z" fill="#10162F"/>
<path d="M539 324.447L465.597 269.37V57.6298L465.794 57.4833L539 2.55319V324.447ZM466.58 268.884L538.016 322.487V4.51358L466.58 58.1166V268.884Z" fill="#10162F"/>
<path d="M522.164 16.1655H521.181V310.833H522.164V16.1655Z" fill="#10162F"/>
<path d="M507.792 26.9492H506.809V300.05H507.792V26.9492Z" fill="#10162F"/>
<path d="M495.38 36.2614H494.396V290.737H495.38V36.2614Z" fill="#10162F"/>
<path d="M484.555 44.3848H483.571V282.614H484.555V44.3848Z" fill="#10162F"/>
<path d="M475.027 51.5338H474.043V275.465H475.027V51.5338Z" fill="#10162F"/>
<path d="M538.224 32.1601L465.855 76.7021L466.374 77.5345L538.743 32.9924L538.224 32.1601Z" fill="#10162F"/>
<path d="M466.3 96.7225L465.873 95.8424L538.293 61.2622L538.72 62.1424L466.3 96.7225Z" fill="#10162F"/>
<path d="M466.246 115.949L465.93 115.026L538.349 90.3257L538.666 91.2489L466.246 115.949Z" fill="#10162F"/>
<path d="M466.186 135.17L465.989 134.214L538.409 119.394L538.606 120.351L466.186 135.17Z" fill="#10162F"/>
<path d="M538.476 148.472L466.056 153.407L466.123 154.383L538.543 149.447L538.476 148.472Z" fill="#10162F"/>
<path d="M466.123 172.614L466.056 173.59L538.475 178.529L538.543 177.554L466.123 172.614Z" fill="#10162F"/>
<path d="M538.409 207.605L465.989 192.786L466.186 191.829L538.606 206.648L538.409 207.605Z" fill="#10162F"/>
<path d="M538.349 236.673L465.93 211.973L466.246 211.05L538.666 235.75L538.349 236.673Z" fill="#10162F"/>
<path d="M538.293 265.737L465.873 231.157L466.3 230.276L538.72 264.856L538.293 265.737Z" fill="#10162F"/>
<path d="M466.347 249.505L465.83 250.338L538.25 294.798L538.767 293.965L466.347 249.505Z" fill="#10162F"/>
<path d="M437.303 324.657L436.461 323.81L382.39 269.327V57.6728L382.531 57.5297L437.303 2.34314V324.657ZM383.373 268.927L436.319 322.276V4.72359L383.373 58.0736V268.927Z" fill="#10162F"/>
<path d="M424.766 16.1655H423.782V310.833H424.766V16.1655Z" fill="#10162F"/>
<path d="M414.063 26.9492H413.079V300.05H414.063V26.9492Z" fill="#10162F"/>
<path d="M404.821 36.2615H403.837V290.737H404.821V36.2615Z" fill="#10162F"/>
<path d="M396.759 44.385H395.775V282.614H396.759V44.385Z" fill="#10162F"/>
<path d="M389.665 51.5338H388.682V275.465H389.665V51.5338Z" fill="#10162F"/>
<path d="M383.198 77.4528L382.569 76.7016L436.499 32.2416L437.128 32.9928L383.198 77.4528Z" fill="#10162F"/>
<path d="M436.543 61.2868L382.62 95.8777L383.153 96.6983L437.075 62.1073L436.543 61.2868Z" fill="#10162F"/>
<path d="M383.088 115.931L382.676 115.044L436.605 90.344L437.018 91.231L383.088 115.931Z" fill="#10162F"/>
<path d="M383.014 135.163L382.75 134.221L436.68 119.401L436.943 120.344L383.014 135.163Z" fill="#10162F"/>
<path d="M436.763 148.446L382.838 153.436L382.929 154.409L436.854 149.419L436.763 148.446Z" fill="#10162F"/>
<path d="M382.927 172.615L382.837 173.589L436.767 178.528L436.857 177.555L382.927 172.615Z" fill="#10162F"/>
<path d="M436.68 207.598L382.75 192.778L383.014 191.836L436.943 206.656L436.68 207.598Z" fill="#10162F"/>
<path d="M436.605 236.655L382.676 211.955L383.088 211.068L437.018 235.768L436.605 236.655Z" fill="#10162F"/>
<path d="M383.149 230.306L382.616 231.127L436.546 265.707L437.078 264.886L383.149 230.306Z" fill="#10162F"/>
<path d="M436.499 294.757L382.569 250.297L383.198 249.546L437.128 294.006L436.499 294.757Z" fill="#10162F"/>
<path d="M356.409 325.215L322.296 269.263V57.7373L322.368 57.6203L356.409 1.78506V325.215ZM323.279 268.991L355.425 321.718V5.28162L323.279 58.0091V268.991Z" fill="#10162F"/>
<path d="M348.708 16.1654H347.725V310.833H348.708V16.1654Z" fill="#10162F"/>
<path d="M342.134 26.9491H341.15V300.05H342.134V26.9491Z" fill="#10162F"/>
<path d="M336.456 36.2614H335.473V290.737H336.456V36.2614Z" fill="#10162F"/>
<path d="M331.504 44.3848H330.521V282.614H331.504V44.3848Z" fill="#10162F"/>
<path d="M327.144 51.5338H326.16V275.465H327.144V51.5338Z" fill="#10162F"/>
<path d="M355.501 32.3114L322.412 76.8011L323.204 77.383L356.293 32.8933L355.501 32.3114Z" fill="#10162F"/>
<path d="M355.563 61.3678L322.43 95.9443L323.14 96.6169L356.273 62.0403L355.563 61.3678Z" fill="#10162F"/>
<path d="M355.62 90.3936L322.495 115.099L323.085 115.881L356.211 91.1758L355.62 90.3936Z" fill="#10162F"/>
<path d="M355.721 119.437L322.582 134.235L322.985 135.127L356.124 120.329L355.721 119.437Z" fill="#10162F"/>
<path d="M322.859 154.38L322.715 153.414L355.844 148.474L355.988 149.44L322.859 154.38Z" fill="#10162F"/>
<path d="M355.844 178.524L322.715 173.585L322.859 172.619L355.988 177.558L355.844 178.524Z" fill="#10162F"/>
<path d="M322.989 191.861L322.585 192.753L355.714 207.572L356.118 206.68L322.989 191.861Z" fill="#10162F"/>
<path d="M323.083 211.12L322.493 211.902L355.623 236.603L356.213 235.82L323.083 211.12Z" fill="#10162F"/>
<path d="M323.142 230.38L322.432 231.053L355.561 265.633L356.271 264.96L323.142 230.38Z" fill="#10162F"/>
<path d="M323.183 249.63L322.392 250.213L355.521 294.673L356.312 294.09L323.183 249.63Z" fill="#10162F"/>
<path d="M297.855 327L281.462 269.127L281.481 57.7409L297.855 0V327ZM282.446 269.059L296.871 319.933V7.06662L282.446 57.9412V269.059Z" fill="#10162F"/>
<path d="M294.272 16.1654H293.288V310.833H294.272V16.1654Z" fill="#10162F"/>
<path d="M291.214 26.9491H290.23V300.05H291.214V26.9491Z" fill="#10162F"/>
<path d="M288.575 36.2614H287.592V290.737H288.575V36.2614Z" fill="#10162F"/>
<path d="M286.271 44.3848H285.287V282.614H286.271V44.3848Z" fill="#10162F"/>
<path d="M284.245 51.5337H283.262V275.465H284.245V51.5337Z" fill="#10162F"/>
<path d="M282.419 77.2359L281.488 76.9186L296.898 32.4586L297.829 32.7759L282.419 77.2359Z" fill="#10162F"/>
<path d="M296.929 61.5107L281.49 96.0776L282.388 96.4736L297.827 61.9068L296.929 61.5107Z" fill="#10162F"/>
<path d="M296.947 90.531L281.532 115.228L282.367 115.743L297.782 91.0461L296.947 90.531Z" fill="#10162F"/>
<path d="M297.029 119.528L281.607 134.335L282.289 135.036L297.71 120.229L297.029 119.528Z" fill="#10162F"/>
<path d="M297.209 148.487L281.803 153.437L282.105 154.367L297.511 149.418L297.209 148.487Z" fill="#10162F"/>
<path d="M282.104 172.637L281.803 173.567L297.212 178.506L297.514 177.576L282.104 172.637Z" fill="#10162F"/>
<path d="M282.295 191.957L281.613 192.658L297.023 207.477L297.705 206.776L282.295 191.957Z" fill="#10162F"/>
<path d="M282.371 211.254L281.536 211.768L296.946 236.469L297.781 235.954L282.371 211.254Z" fill="#10162F"/>
<path d="M282.402 230.519L281.505 230.914L296.914 265.494L297.812 265.099L282.402 230.519Z" fill="#10162F"/>
<path d="M296.898 294.54L281.488 250.08L282.419 249.763L297.829 294.223L296.898 294.54Z" fill="#10162F"/>
</svg>
